<svg xmlns="http://www.w3.org/2000/svg" xmlns:xlink="http://www.w3.org/1999/xlink" width="731" height="462" viewBox="0 0 731 462">
  <metadata><?xpacket begin="﻿" id="W5M0MpCehiHzreSzNTczkc9d"?>
<x:xmpmeta xmlns:x="adobe:ns:meta/" x:xmptk="Adobe XMP Core 5.6-c142 79.160924, 2017/07/13-01:06:39        ">
   <rdf:RDF xmlns:rdf="http://www.w3.org/1999/02/22-rdf-syntax-ns#">
      <rdf:Description rdf:about=""/>
   </rdf:RDF>
</x:xmpmeta>
                                                                                                    
                                                                                                    
                                                                                                    
                                                                                                    
                                                                                                    
                                                                                                    
                                                                                                    
                                                                                                    
                                                                                                    
                                                                                                    
                                                                                                    
                                                                                                    
                                                                                                    
                                                                                                    
                                                                                                    
                                                                                                    
                                                                                                    
                                                                                                    
                                                                                                    
                                                                                                    
                           
<?xpacket end="w"?></metadata>
<defs>
    <style>
      .cls-1 {
        fill: none;
        stroke: #fff;
        stroke-width: 3px;
        fill-rule: evenodd;
        filter: url(#filter);
      }
    </style>
    <filter id="filter" x="597" y="215" width="728" height="459" filterUnits="userSpaceOnUse">
      <feOffset result="offset" dy="4" in="SourceAlpha"/>
      <feGaussianBlur result="blur" stdDeviation="2.828"/>
      <feFlood result="flood" flood-opacity="0.5"/>
      <feComposite result="composite" operator="in" in2="blur"/>
      <feBlend result="blend" in="SourceGraphic"/>
    </filter>
  </defs>
  <g transform="translate(-595.5 -213.5)" style="fill: none; filter: url(#filter)">
    <path id="形状_18" data-name="形状 18" class="cls-1" d="M1311.45,472.439l-31.97,51.281c-4.3,6.891-10.98,15.817-22.05,20.241a31.584,31.584,0,0,1-1.68,3.006l-1.74,2.813a26.638,26.638,0,0,1,2.2,31.107l-9.6,15.369a26.771,26.771,0,0,1-20.96,12.49,26.453,26.453,0,0,1-15.76-3.949l-38.18-23.716a38.367,38.367,0,0,1,3.03,13.733c0.34,9.716-2.89,19.773-9.61,29.841l-16.17,24.2a28.084,28.084,0,0,1-17.97,12.038,25.939,25.939,0,0,1-3.85.519,28.076,28.076,0,0,1-17.49-4.693l-8.6-5.721a28.371,28.371,0,0,1-7.61-7.455,28.463,28.463,0,0,1-9.84-4.154l-8.5-5.665a28.318,28.318,0,0,1-7.35-7.138,47.535,47.535,0,0,1-5.45.659,51.411,51.411,0,0,1-44.26-20.615,28.126,28.126,0,0,1-11.08,2.381l-6.71-.748c-0.33-.079-11.637-3.172-11.992-3.286l-3.732-1.483a28.566,28.566,0,0,1-2.947-1.646,28.518,28.518,0,0,1-7.663.514l-10.337-.727a28.3,28.3,0,0,1-10.3-2.712,28.421,28.421,0,0,1-10.583,1.246l-10.211-.71a28.3,28.3,0,0,1-18.68-8.9c-7.655,5.309-17.1,8.4-27.932,9.1-7.528.481-25.5,0.068-39.24-12.473a28.177,28.177,0,0,1-16.977,24.737l-9.528,4.152a28.324,28.324,0,0,1-9.523,2.306H810.59a27.937,27.937,0,0,1-8.994-.888,28.426,28.426,0,0,1-9.3,8.7l-9.373,5.419a28.415,28.415,0,0,1-16.644,3.715,28.3,28.3,0,0,1-11.513,12.543L745.871,653a28.355,28.355,0,0,1-41.841-18.216l-14.362-63.139c-0.034-.147-0.056-0.294-0.091-0.453l-14.769,5.479a43.09,43.09,0,0,1-12.222,2.6,42.7,42.7,0,0,1-45.258-40.226L604.845,309.442a42.413,42.413,0,0,1,27.773-42.277l44.769-16.588a42.5,42.5,0,0,1,48.668,13.94L836.7,407.85l-9.629-142.365A42.257,42.257,0,0,1,866.4,220.524l27.575-1.86a42.254,42.254,0,0,1,44.874,39.271l3.183,47.1a32.753,32.753,0,0,1,21.942-4.92l50.562,6.434a32.762,32.762,0,0,1,21.17,11.582,32.3,32.3,0,0,1,5.82-1.982l7.08-1.679a32.352,32.352,0,0,1,31.64,9.749,32.623,32.623,0,0,1,27.67.215l9.34,4.483a32.45,32.45,0,0,1,15.65,42.328,31.738,31.738,0,0,1,2.95,21.382l-1.67,7.863,15.84-25.42a33.578,33.578,0,0,1,46.19-10.707l36.27,22.525a33.309,33.309,0,0,1,8.04,6.97,33.335,33.335,0,0,1,15.99,5.012l44.22,27.456a33.25,33.25,0,0,1,14.92,20.829v0.012A33.154,33.154,0,0,1,1311.45,472.439Z" style="stroke: inherit; filter: none; fill: inherit"/>
  </g>
  <use transform="translate(-595.5 -213.5)" xlink:href="#形状_18" style="stroke: #fff; filter: none; fill: none"/>
</svg>
